M48
METRIC,LZ,000.000
;FILE_FORMAT=3:3
;TYPE=PLATED
;Layer: PTH_Through
;EasyEDA v6.4.31, 2022-02-07 09:20:43
;3eb59c903aca4652a743d0d7eb9a3f43,45a17ad13836470b90e4f9db8166e0ae,10
;Gerber Generator version 0.2
;Holesize 1 = 0.915 mm
T01C0.915
;Holesize 2 = 1.001 mm
T02C1.001
;Holesize 3 = 1.101 mm
T03C1.101
;Holesize 4 = 1.301 mm
T04C1.301
%
G05
G90
T01
X026924Y051181
X026924Y048641
X026924Y046101
T02
X054986Y047012
X054986Y049552
X054986Y052092
X054986Y054632
T03
X069596Y034544
X072136Y034544
X072136Y042164
X069596Y042164
X074676Y034544
X077216Y034544
X074676Y042164
X077216Y042164
X083744Y040555
X083744Y036054
X090246Y040555
X090246Y036054
X061544Y036054
X055042Y040555
X055042Y036054
X061544Y040555
X081280Y059944
X083820Y059944
X086360Y059944
X088900Y059944
X091440Y059944
X078740Y059944
T04
X040767Y036863
X040767Y056863
M30
