G04 Layer: BottomLayer*
G04 EasyEDA v6.4.31, 2022-02-07 09:20:43*
G04 3eb59c903aca4652a743d0d7eb9a3f43,45a17ad13836470b90e4f9db8166e0ae,10*
G04 Gerber Generator version 0.2*
G04 Scale: 100 percent, Rotated: No, Reflected: No *
G04 Dimensions in millimeters *
G04 leading zeros omitted , absolute positions ,4 integer and 5 decimal *
%FSLAX45Y45*%
%MOMM*%

%ADD10C,0.2540*%
%ADD11C,1.5240*%
%ADD12C,2.0000*%
%ADD13C,1.7780*%
%ADD14C,1.8000*%

%LPD*%
D10*
X9024620Y3605403D02*
G01*
X9274124Y3854907D01*
X9274124Y6051651D01*
X9209455Y6116320D01*
X8249920Y6116320D01*
X8128000Y5994400D01*
X5498591Y4701235D02*
G01*
X5061762Y4701235D01*
X4076700Y5686297D01*
X6154420Y3605403D02*
G01*
X5498591Y4261230D01*
X5498591Y4701235D01*
X7721600Y3454400D02*
G01*
X7601838Y3334638D01*
X6425184Y3334638D01*
X6154420Y3605403D01*
X7213600Y4216400D02*
G01*
X8382000Y5384800D01*
X8382000Y5994400D01*
X7467600Y4216400D02*
G01*
X8636000Y5384800D01*
X8636000Y5994400D01*
X5498591Y5463235D02*
G01*
X5882436Y5463235D01*
X7086600Y4259071D01*
X7086600Y4158589D01*
X7146899Y4098289D01*
X7541133Y4098289D01*
X7659243Y4216400D01*
X7721600Y4216400D01*
X7721600Y4216400D02*
G01*
X8890000Y5384800D01*
X8890000Y5994400D01*
X6959600Y3454400D02*
G01*
X7601483Y4096283D01*
X7784236Y4096283D01*
X9144000Y5456046D01*
X9144000Y5994400D01*
X8374379Y4055490D02*
G01*
X7814690Y4055490D01*
X7213600Y3454400D01*
X6959600Y4216400D02*
G01*
X6220764Y4955235D01*
X5498591Y4955235D01*
D11*
G01*
X2692400Y5118100D03*
G01*
X2692400Y4864100D03*
G01*
X2692400Y4610100D03*
D12*
G01*
X4076700Y3686302D03*
G01*
X4076700Y5686297D03*
D13*
G01*
X5498591Y4701235D03*
G01*
X5498591Y4955235D03*
G01*
X5498591Y5209235D03*
G01*
X5498591Y5463235D03*
D14*
G01*
X6959600Y3454400D03*
G01*
X7213600Y3454400D03*
G01*
X7213600Y4216400D03*
G01*
X6959600Y4216400D03*
G01*
X7467600Y3454400D03*
G01*
X7721600Y3454400D03*
G01*
X7467600Y4216400D03*
G01*
X7721600Y4216400D03*
G01*
X8374379Y4055490D03*
G01*
X8374379Y3605403D03*
G01*
X9024620Y4055490D03*
G01*
X9024620Y3605403D03*
G01*
X6154420Y3605403D03*
G01*
X5504179Y4055490D03*
G01*
X5504179Y3605403D03*
G01*
X6154420Y4055490D03*
G01*
X8128000Y5994400D03*
G01*
X8382000Y5994400D03*
G01*
X8636000Y5994400D03*
G01*
X8890000Y5994400D03*
G01*
X9144000Y5994400D03*
G01*
X7874000Y5994400D03*
M02*
