G04 Layer: TopSilkscreenLayer*
G04 EasyEDA v6.4.31, 2022-02-07 09:20:43*
G04 3eb59c903aca4652a743d0d7eb9a3f43,45a17ad13836470b90e4f9db8166e0ae,10*
G04 Gerber Generator version 0.2*
G04 Scale: 100 percent, Rotated: No, Reflected: No *
G04 Dimensions in millimeters *
G04 leading zeros omitted , absolute positions ,4 integer and 5 decimal *
%FSLAX45Y45*%
%MOMM*%

%ADD10C,0.2540*%
%ADD15C,0.2000*%
%ADD16C,0.1520*%
%ADD17C,0.1524*%

%LPD*%
G36*
X2728976Y3641851D02*
G01*
X2726944Y3640582D01*
X2730906Y3634841D01*
X2734767Y3628034D01*
X2737967Y3620770D01*
X2739898Y3613912D01*
X2743047Y3612083D01*
X2745994Y3611575D01*
X2748584Y3612184D01*
X2750667Y3613759D01*
X2752090Y3616147D01*
X2752648Y3619195D01*
X2752191Y3622751D01*
X2750566Y3626612D01*
X2747568Y3630574D01*
X2743098Y3634587D01*
X2736951Y3638397D01*
G37*
G36*
X2941574Y3641851D02*
G01*
X2941726Y3627526D01*
X2942183Y3613556D01*
X2942945Y3600043D01*
X2944114Y3586987D01*
X2918206Y3584194D01*
X2920492Y3579114D01*
X2944876Y3581908D01*
X2947314Y3565601D01*
X2950667Y3550310D01*
X2952699Y3543046D01*
X2955036Y3535984D01*
X2957677Y3529228D01*
X2960624Y3522726D01*
X2953461Y3514750D01*
X2945688Y3507130D01*
X2937357Y3499967D01*
X2928366Y3493262D01*
X2918764Y3487115D01*
X2908554Y3481578D01*
X2910078Y3479037D01*
X2921050Y3483508D01*
X2931363Y3488486D01*
X2940964Y3493922D01*
X2949956Y3499815D01*
X2958287Y3506114D01*
X2965958Y3512820D01*
X2971139Y3505403D01*
X2976930Y3498494D01*
X2983280Y3492195D01*
X2990342Y3486658D01*
X2997098Y3482238D01*
X3004159Y3479190D01*
X3010712Y3478479D01*
X3015742Y3481070D01*
X3016605Y3483051D01*
X3016300Y3485794D01*
X3014573Y3489451D01*
X3011170Y3494278D01*
X3014472Y3521964D01*
X3012186Y3522472D01*
X3010255Y3516629D01*
X3005886Y3505758D01*
X3002584Y3499612D01*
X3001365Y3498850D01*
X2999892Y3499205D01*
X2991612Y3505301D01*
X2985922Y3510584D01*
X2980842Y3516426D01*
X2976372Y3522979D01*
X2980994Y3528364D01*
X2985262Y3533800D01*
X2993034Y3544925D01*
X2999587Y3556152D01*
X3002483Y3561791D01*
X3005074Y3567429D01*
X3008071Y3567328D01*
X3010052Y3567734D01*
X3011322Y3568649D01*
X3012186Y3569970D01*
X2991866Y3578098D01*
X2987802Y3567226D01*
X2982772Y3556457D01*
X2976930Y3545738D01*
X2970276Y3535172D01*
X2968091Y3540506D01*
X2966161Y3546094D01*
X2962859Y3557879D01*
X2960319Y3570376D01*
X2958338Y3583432D01*
X3013811Y3589782D01*
X3015183Y3590442D01*
X3016148Y3591458D01*
X3016504Y3592829D01*
X3005124Y3600348D01*
X2998724Y3604260D01*
X2990850Y3592322D01*
X2957830Y3588512D01*
X2957017Y3599586D01*
X2956509Y3611016D01*
X2956255Y3622700D01*
X2956306Y3634486D01*
X2959201Y3635197D01*
X2961081Y3636365D01*
X2962198Y3637889D01*
X2962656Y3639565D01*
G37*
G36*
X3058160Y3641851D02*
G01*
X3058160Y3601465D01*
X3029458Y3601465D01*
X3030982Y3596386D01*
X3055112Y3596386D01*
X3052368Y3583127D01*
X3048914Y3569868D01*
X3044850Y3556914D01*
X3040024Y3544417D01*
X3034588Y3532682D01*
X3031591Y3527196D01*
X3028442Y3521964D01*
X3030982Y3519678D01*
X3038856Y3528822D01*
X3046120Y3538677D01*
X3052572Y3549192D01*
X3058160Y3560318D01*
X3058160Y3478022D01*
X3061208Y3478022D01*
X3065018Y3478529D01*
X3068472Y3479749D01*
X3070910Y3481324D01*
X3071876Y3482848D01*
X3071876Y3577590D01*
X3076651Y3571494D01*
X3081020Y3564636D01*
X3084474Y3557574D01*
X3086354Y3550920D01*
X3089554Y3549091D01*
X3092551Y3548634D01*
X3095142Y3549294D01*
X3097174Y3551021D01*
X3098444Y3553561D01*
X3098850Y3556762D01*
X3098088Y3560470D01*
X3096107Y3564534D01*
X3092653Y3568801D01*
X3087624Y3573018D01*
X3080715Y3577132D01*
X3071876Y3580892D01*
X3071876Y3596386D01*
X3097530Y3596386D01*
X3099308Y3596538D01*
X3100730Y3597046D01*
X3101746Y3597910D01*
X3102356Y3599179D01*
X3092500Y3608374D01*
X3086862Y3613150D01*
X3078734Y3601465D01*
X3071876Y3601465D01*
X3071876Y3634740D01*
X3074873Y3635451D01*
X3076803Y3636518D01*
X3077921Y3637940D01*
X3078480Y3639820D01*
G37*
G36*
X2787142Y3641598D02*
G01*
X2785922Y3635146D01*
X2782366Y3620515D01*
X2780131Y3612794D01*
X2777591Y3605022D01*
X2774746Y3597401D01*
X2771648Y3590137D01*
X2768346Y3583432D01*
X2770378Y3581400D01*
X2775051Y3586835D01*
X2779471Y3592779D01*
X2783687Y3599078D01*
X2787650Y3605529D01*
X2835910Y3605529D01*
X2837637Y3605682D01*
X2838958Y3606139D01*
X2839923Y3607054D01*
X2840482Y3608324D01*
X2830525Y3617010D01*
X2824988Y3621532D01*
X2816352Y3610610D01*
X2790698Y3610610D01*
X2793949Y3616502D01*
X2799181Y3627780D01*
X2801112Y3632962D01*
X2803448Y3632962D01*
X2805226Y3633368D01*
X2806446Y3634079D01*
X2807208Y3635248D01*
G37*
G36*
X2507996Y3640582D02*
G01*
X2506472Y3639058D01*
X2512060Y3634384D01*
X2517444Y3628644D01*
X2521966Y3622344D01*
X2525014Y3615944D01*
X2528468Y3614420D01*
X2531567Y3614216D01*
X2534158Y3615182D01*
X2536139Y3617061D01*
X2537256Y3619703D01*
X2537358Y3622852D01*
X2536342Y3626256D01*
X2533954Y3629812D01*
X2530144Y3633215D01*
X2524607Y3636264D01*
X2517292Y3638804D01*
G37*
G36*
X2683764Y3640582D02*
G01*
X2682240Y3639312D01*
X2687574Y3634282D01*
X2692755Y3628339D01*
X2697124Y3621887D01*
X2700020Y3615436D01*
X2703372Y3614064D01*
X2706420Y3613962D01*
X2708960Y3614928D01*
X2710891Y3616807D01*
X2711958Y3619398D01*
X2712059Y3622497D01*
X2711094Y3625900D01*
X2708808Y3629355D01*
X2705100Y3632809D01*
X2699766Y3635908D01*
X2692704Y3638600D01*
G37*
G36*
X2644648Y3639058D02*
G01*
X2635504Y3627628D01*
X2564638Y3627628D01*
X2548890Y3633978D01*
X2548839Y3579114D01*
X2548534Y3565651D01*
X2547823Y3552088D01*
X2546451Y3538474D01*
X2544267Y3524961D01*
X2542844Y3518306D01*
X2541168Y3511753D01*
X2539238Y3505250D01*
X2537002Y3498850D01*
X2534462Y3492601D01*
X2531567Y3486505D01*
X2528316Y3480562D01*
X2530856Y3478784D01*
X2535021Y3483457D01*
X2538831Y3488334D01*
X2542286Y3493363D01*
X2545334Y3498545D01*
X2548077Y3503879D01*
X2550515Y3509264D01*
X2552700Y3514801D01*
X2554579Y3520389D01*
X2557576Y3531717D01*
X2559659Y3543096D01*
X2561082Y3554374D01*
X2561894Y3565347D01*
X2562250Y3575964D01*
X2562352Y3622294D01*
X2601722Y3622294D01*
X2600248Y3610965D01*
X2598166Y3600958D01*
X2587498Y3600958D01*
X2573528Y3607054D01*
X2573528Y3595878D01*
X2635250Y3595878D01*
X2635250Y3575304D01*
X2586736Y3575304D01*
X2586736Y3595878D01*
X2573528Y3595878D01*
X2573528Y3569970D01*
X2635250Y3569970D01*
X2635250Y3550412D01*
X2586736Y3550412D01*
X2586736Y3569970D01*
X2573528Y3569970D01*
X2573528Y3537204D01*
X2575560Y3537204D01*
X2579573Y3537661D01*
X2583129Y3538728D01*
X2585720Y3539998D01*
X2586736Y3541014D01*
X2586736Y3545332D01*
X2604516Y3545332D01*
X2604414Y3496360D01*
X2603906Y3495344D01*
X2602788Y3494735D01*
X2600960Y3494532D01*
X2582164Y3495801D01*
X2582164Y3493008D01*
X2587091Y3492144D01*
X2590901Y3491077D01*
X2593797Y3489756D01*
X2595880Y3488182D01*
X2597200Y3486404D01*
X2598064Y3484118D01*
X2598623Y3481476D01*
X2598928Y3478529D01*
X2608986Y3480663D01*
X2614726Y3484727D01*
X2617368Y3490417D01*
X2617978Y3497579D01*
X2617978Y3545332D01*
X2635250Y3545332D01*
X2635250Y3538728D01*
X2637536Y3538728D01*
X2641092Y3539185D01*
X2644648Y3540251D01*
X2647442Y3541522D01*
X2648712Y3542537D01*
X2648712Y3593592D01*
X2651048Y3594150D01*
X2653131Y3594963D01*
X2654757Y3596030D01*
X2655824Y3597148D01*
X2640584Y3608324D01*
X2633726Y3600958D01*
X2604262Y3600958D01*
X2610358Y3607308D01*
X2613202Y3610813D01*
X2615692Y3614420D01*
X2618130Y3614826D01*
X2620060Y3615639D01*
X2621432Y3616807D01*
X2622296Y3618229D01*
X2605786Y3622294D01*
X2656332Y3622294D01*
X2658110Y3622446D01*
X2659481Y3622954D01*
X2660548Y3623818D01*
X2661158Y3625087D01*
X2650540Y3634282D01*
G37*
G36*
X2458720Y3637787D02*
G01*
X2449830Y3626358D01*
X2325370Y3626358D01*
X2326640Y3621278D01*
X2420366Y3621278D01*
X2420366Y3566414D01*
X2379726Y3566414D01*
X2379726Y3621278D01*
X2364994Y3621278D01*
X2364994Y3566414D01*
X2318258Y3566414D01*
X2319782Y3561334D01*
X2364740Y3561334D01*
X2363978Y3549548D01*
X2362250Y3538270D01*
X2360930Y3532835D01*
X2359304Y3527501D01*
X2357323Y3522268D01*
X2354935Y3517188D01*
X2352141Y3512210D01*
X2348890Y3507333D01*
X2345131Y3502609D01*
X2340914Y3497986D01*
X2336139Y3493515D01*
X2330805Y3489147D01*
X2324862Y3484930D01*
X2318258Y3480815D01*
X2320036Y3478529D01*
X2327046Y3481476D01*
X2333447Y3484575D01*
X2339340Y3487877D01*
X2344724Y3491280D01*
X2349601Y3494836D01*
X2354021Y3498596D01*
X2357983Y3502406D01*
X2361539Y3506419D01*
X2364689Y3510483D01*
X2367483Y3514699D01*
X2369870Y3519017D01*
X2371953Y3523386D01*
X2373731Y3527907D01*
X2375255Y3532479D01*
X2376474Y3537153D01*
X2378252Y3546652D01*
X2379218Y3556406D01*
X2379472Y3561334D01*
X2420366Y3561334D01*
X2420366Y3478784D01*
X2422906Y3478784D01*
X2428036Y3479342D01*
X2431846Y3480612D01*
X2434285Y3482086D01*
X2435098Y3483356D01*
X2435098Y3561334D01*
X2479294Y3561334D01*
X2481072Y3561486D01*
X2482494Y3561943D01*
X2483510Y3562858D01*
X2484120Y3564128D01*
X2479090Y3569157D01*
X2467864Y3579114D01*
X2458974Y3566414D01*
X2435098Y3566414D01*
X2435098Y3621278D01*
X2470404Y3621278D01*
X2472182Y3621430D01*
X2473553Y3621938D01*
X2474620Y3622801D01*
X2475230Y3624072D01*
G37*
G36*
X3159252Y3637279D02*
G01*
X3151378Y3628644D01*
X3125216Y3628644D01*
X3108960Y3635248D01*
X3108909Y3560013D01*
X3108401Y3547516D01*
X3107944Y3541471D01*
X3106318Y3529787D01*
X3105150Y3524148D01*
X3103727Y3518611D01*
X3102000Y3513277D01*
X3099917Y3508044D01*
X3097479Y3502964D01*
X3094685Y3498037D01*
X3091535Y3493211D01*
X3087878Y3488588D01*
X3083814Y3484118D01*
X3079242Y3479800D01*
X3081528Y3478022D01*
X3088132Y3482187D01*
X3094024Y3486556D01*
X3099206Y3491229D01*
X3103727Y3496157D01*
X3107639Y3501288D01*
X3110941Y3506571D01*
X3113786Y3512108D01*
X3116122Y3517747D01*
X3118002Y3523538D01*
X3119526Y3529431D01*
X3120644Y3535476D01*
X3121507Y3541572D01*
X3122422Y3553917D01*
X3122676Y3566414D01*
X3122676Y3623564D01*
X3153410Y3623564D01*
X3153410Y3496310D01*
X3153918Y3490417D01*
X3155797Y3486404D01*
X3159709Y3484118D01*
X3166364Y3483356D01*
X3174492Y3483356D01*
X3184601Y3483813D01*
X3191154Y3485184D01*
X3194761Y3487623D01*
X3195828Y3491229D01*
X3195574Y3493109D01*
X3194710Y3494684D01*
X3193135Y3496005D01*
X3190748Y3497326D01*
X3189986Y3520440D01*
X3187954Y3520440D01*
X3185312Y3506978D01*
X3183991Y3501440D01*
X3182874Y3498087D01*
X3181604Y3496818D01*
X3180334Y3496310D01*
X3170428Y3496310D01*
X3168751Y3496564D01*
X3167837Y3497275D01*
X3167481Y3498443D01*
X3167380Y3621024D01*
X3170072Y3621481D01*
X3172104Y3622192D01*
X3173628Y3623005D01*
X3174746Y3624072D01*
G37*
G36*
X2971292Y3634486D02*
G01*
X2969768Y3632962D01*
X2975711Y3627577D01*
X2981502Y3621227D01*
X2986481Y3614369D01*
X2989834Y3607562D01*
X2993237Y3606241D01*
X2996285Y3606241D01*
X2998774Y3607308D01*
X3000552Y3609289D01*
X3001467Y3611981D01*
X3001416Y3615232D01*
X3000197Y3618737D01*
X2997657Y3622446D01*
X2993644Y3626053D01*
X2988005Y3629355D01*
X2980639Y3632250D01*
G37*
G36*
X2912110Y3623818D02*
G01*
X2903728Y3614928D01*
X2853436Y3614928D01*
X2855214Y3609848D01*
X2904998Y3609848D01*
X2902915Y3597097D01*
X2900375Y3584448D01*
X2897378Y3572001D01*
X2893822Y3559810D01*
X2886913Y3566972D01*
X2879090Y3574440D01*
X2870301Y3582009D01*
X2860548Y3589782D01*
X2858008Y3588258D01*
X2865526Y3578707D01*
X2873400Y3568090D01*
X2881223Y3556660D01*
X2888742Y3544824D01*
X2884119Y3533343D01*
X2878785Y3522268D01*
X2872790Y3511753D01*
X2866085Y3501847D01*
X2858617Y3492703D01*
X2854604Y3488436D01*
X2850388Y3484372D01*
X2852674Y3482086D01*
X2861970Y3488994D01*
X2870403Y3496564D01*
X2877972Y3504692D01*
X2884728Y3513328D01*
X2890875Y3522421D01*
X2896362Y3531870D01*
X2900324Y3524148D01*
X2903829Y3516579D01*
X2906776Y3509314D01*
X2909062Y3502406D01*
X2912211Y3500424D01*
X2915056Y3499662D01*
X2917494Y3500170D01*
X2919374Y3501796D01*
X2920644Y3504488D01*
X2921152Y3508197D01*
X2920898Y3512820D01*
X2919679Y3518357D01*
X2917444Y3524707D01*
X2914142Y3531768D01*
X2909570Y3539540D01*
X2903728Y3547872D01*
X2906522Y3555136D01*
X2909062Y3562502D01*
X2913329Y3577386D01*
X2916834Y3592372D01*
X2919730Y3607308D01*
X2924352Y3608222D01*
X2925775Y3608984D01*
X2926842Y3610101D01*
G37*
G36*
X2763520Y3621786D02*
G01*
X2755646Y3610864D01*
X2712212Y3610864D01*
X2713482Y3605529D01*
X2728468Y3605529D01*
X2728366Y3573830D01*
X2727858Y3561334D01*
X2726791Y3548126D01*
X2724861Y3534511D01*
X2723591Y3527653D01*
X2720086Y3513734D01*
X2717850Y3506825D01*
X2715260Y3499916D01*
X2712313Y3493109D01*
X2708910Y3486404D01*
X2705100Y3479800D01*
X2707386Y3477514D01*
X2712161Y3482797D01*
X2716428Y3488232D01*
X2720289Y3493871D01*
X2723692Y3499713D01*
X2726740Y3505606D01*
X2729382Y3511651D01*
X2731668Y3517747D01*
X2733700Y3523894D01*
X2736799Y3536187D01*
X2738882Y3548329D01*
X2740202Y3560114D01*
X2740914Y3571240D01*
X2755138Y3571240D01*
X2754680Y3549192D01*
X2754071Y3531260D01*
X2753156Y3517188D01*
X2751988Y3506724D01*
X2751277Y3502863D01*
X2750464Y3499764D01*
X2749550Y3497529D01*
X2748534Y3496056D01*
X2747568Y3495090D01*
X2746451Y3494481D01*
X2745028Y3494125D01*
X2740101Y3494125D01*
X2731211Y3494786D01*
X2726944Y3495294D01*
X2726944Y3492246D01*
X2730601Y3491382D01*
X2733903Y3490315D01*
X2736545Y3489096D01*
X2738374Y3487674D01*
X2739745Y3486048D01*
X2740609Y3483965D01*
X2740964Y3481425D01*
X2740914Y3478529D01*
X2745892Y3478885D01*
X2750515Y3480003D01*
X2754630Y3482086D01*
X2758186Y3485134D01*
X2759760Y3487267D01*
X2761132Y3490112D01*
X2762351Y3493668D01*
X2763469Y3498037D01*
X2765196Y3509365D01*
X2766466Y3524758D01*
X2767330Y3544570D01*
X2767838Y3569462D01*
X2770378Y3569919D01*
X2772359Y3570579D01*
X2773832Y3571341D01*
X2774950Y3572256D01*
X2760726Y3584194D01*
X2753360Y3576320D01*
X2741168Y3576320D01*
X2741371Y3581196D01*
X2741422Y3605529D01*
X2773172Y3605529D01*
X2774899Y3605733D01*
X2776220Y3606241D01*
X2777185Y3607155D01*
X2777744Y3608324D01*
X2768650Y3617163D01*
G37*
G36*
X2542286Y3610864D02*
G01*
X2514244Y3539998D01*
X2510028Y3530803D01*
X2509062Y3529634D01*
X2508046Y3529177D01*
X2499106Y3529076D01*
X2499106Y3525520D01*
X2503779Y3524605D01*
X2505710Y3523843D01*
X2507488Y3522726D01*
X2508859Y3521201D01*
X2509977Y3518611D01*
X2510739Y3515106D01*
X2511196Y3510737D01*
X2511348Y3505606D01*
X2511145Y3499865D01*
X2510637Y3493617D01*
X2509774Y3486912D01*
X2510536Y3483051D01*
X2512060Y3480257D01*
X2514142Y3478580D01*
X2516632Y3478022D01*
X2521102Y3478936D01*
X2524455Y3481527D01*
X2526690Y3485642D01*
X2527554Y3490976D01*
X2526995Y3500983D01*
X2525318Y3509060D01*
X2523439Y3515918D01*
X2522474Y3522218D01*
X2522524Y3525723D01*
X2522931Y3529685D01*
X2524760Y3538474D01*
X2529586Y3556050D01*
X2545334Y3610101D01*
G37*
G36*
X2714498Y3600704D02*
G01*
X2688234Y3536391D01*
X2685643Y3531615D01*
X2684729Y3530549D01*
X2683662Y3530142D01*
X2674620Y3530092D01*
X2674620Y3526282D01*
X2679496Y3525469D01*
X2681478Y3524707D01*
X2683256Y3523487D01*
X2684576Y3521964D01*
X2685592Y3519373D01*
X2686304Y3515868D01*
X2686761Y3511448D01*
X2686862Y3506317D01*
X2686659Y3500526D01*
X2686151Y3494176D01*
X2685288Y3487420D01*
X2685999Y3483508D01*
X2687320Y3480663D01*
X2689199Y3478885D01*
X2691638Y3478276D01*
X2695752Y3479139D01*
X2698953Y3481679D01*
X2701086Y3485692D01*
X2702052Y3490976D01*
X2701645Y3501136D01*
X2699969Y3509416D01*
X2698089Y3516426D01*
X2696972Y3522726D01*
X2697175Y3526129D01*
X2698496Y3533597D01*
X2699918Y3539947D01*
X2717546Y3600196D01*
G37*
G36*
X2496820Y3599434D02*
G01*
X2495296Y3598164D01*
X2500376Y3593795D01*
X2505303Y3588562D01*
X2509418Y3582771D01*
X2512060Y3576828D01*
X2515514Y3575456D01*
X2518562Y3575354D01*
X2521153Y3576320D01*
X2523083Y3578148D01*
X2524201Y3580688D01*
X2524353Y3583635D01*
X2523388Y3586886D01*
X2521204Y3590137D01*
X2517597Y3593236D01*
X2512415Y3595928D01*
X2505557Y3598062D01*
G37*
G36*
X2675382Y3599434D02*
G01*
X2673858Y3598164D01*
X2678582Y3593592D01*
X2683103Y3588156D01*
X2686812Y3582212D01*
X2689098Y3576065D01*
X2692298Y3574592D01*
X2695244Y3574389D01*
X2697784Y3575304D01*
X2699715Y3577031D01*
X2700883Y3579469D01*
X2701188Y3582415D01*
X2700426Y3585667D01*
X2698445Y3588969D01*
X2695143Y3592220D01*
X2690266Y3595166D01*
X2683764Y3597656D01*
G37*
G36*
X2822956Y3592829D02*
G01*
X2815336Y3585464D01*
X2778760Y3585464D01*
X2780284Y3580129D01*
X2814320Y3580129D01*
X2809087Y3572408D01*
X2803652Y3564890D01*
X2796540Y3565651D01*
X2796540Y3543046D01*
X2771902Y3543046D01*
X2773426Y3537965D01*
X2796540Y3537965D01*
X2796540Y3496310D01*
X2796387Y3494887D01*
X2795828Y3493922D01*
X2794812Y3493414D01*
X2793238Y3493262D01*
X2775712Y3494278D01*
X2775712Y3491737D01*
X2780385Y3490874D01*
X2783941Y3489807D01*
X2786481Y3488486D01*
X2788158Y3486912D01*
X2789580Y3485134D01*
X2790545Y3483000D01*
X2791155Y3480409D01*
X2791460Y3477514D01*
X2801112Y3479495D01*
X2806547Y3483203D01*
X2808986Y3488537D01*
X2809494Y3495548D01*
X2809494Y3537965D01*
X2835910Y3537965D01*
X2837383Y3538169D01*
X2838653Y3538677D01*
X2839618Y3539591D01*
X2840228Y3540760D01*
X2835910Y3545128D01*
X2826258Y3553714D01*
X2818638Y3543046D01*
X2809494Y3543046D01*
X2809494Y3559048D01*
X2812135Y3559708D01*
X2814015Y3560673D01*
X2815234Y3561943D01*
X2815844Y3563620D01*
X2808732Y3564382D01*
X2819908Y3571798D01*
X2829560Y3578606D01*
X2832100Y3578707D01*
X2834030Y3579012D01*
X2835452Y3579571D01*
X2836418Y3580384D01*
G37*
G36*
X2580132Y3533648D02*
G01*
X2578150Y3528517D01*
X2575610Y3522979D01*
X2572664Y3517188D01*
X2569311Y3511245D01*
X2565603Y3505301D01*
X2561590Y3499561D01*
X2557373Y3494125D01*
X2552954Y3489198D01*
X2554986Y3486912D01*
X2560624Y3490772D01*
X2566009Y3495040D01*
X2571191Y3499662D01*
X2576017Y3504437D01*
X2580487Y3509314D01*
X2588209Y3518966D01*
X2591308Y3523487D01*
X2594051Y3523183D01*
X2595930Y3523437D01*
X2597150Y3524250D01*
X2597912Y3525520D01*
G37*
G36*
X2626360Y3531362D02*
G01*
X2624074Y3530092D01*
X2631135Y3521862D01*
X2634691Y3517137D01*
X2637993Y3512210D01*
X2641041Y3507130D01*
X2643682Y3502050D01*
X2645765Y3497072D01*
X2647188Y3492246D01*
X2649728Y3490772D01*
X2652166Y3490214D01*
X2654350Y3490417D01*
X2656179Y3491331D01*
X2657652Y3492855D01*
X2658668Y3494989D01*
X2659126Y3497630D01*
X2658973Y3500678D01*
X2658110Y3504031D01*
X2656484Y3507689D01*
X2654046Y3511600D01*
X2650642Y3515563D01*
X2646273Y3519627D01*
X2640787Y3523640D01*
X2634183Y3527602D01*
G37*
D15*
X2245106Y5428487D02*
G01*
X2236215Y5423915D01*
X2227072Y5414771D01*
X2222500Y5401310D01*
X2222500Y5392165D01*
X2227072Y5378450D01*
X2236215Y5369305D01*
X2245106Y5364734D01*
X2258822Y5364734D01*
X2267965Y5369305D01*
X2277109Y5378450D01*
X2281681Y5392165D01*
X2281681Y5401310D01*
X2277109Y5414771D01*
X2267965Y5423915D01*
X2258822Y5428487D01*
X2245106Y5428487D01*
X2347975Y5460237D02*
G01*
X2338831Y5460237D01*
X2329688Y5455665D01*
X2325115Y5442204D01*
X2325115Y5364734D01*
X2311654Y5428487D02*
G01*
X2343404Y5428487D01*
X2414270Y5460237D02*
G01*
X2405125Y5460237D01*
X2396236Y5455665D01*
X2391663Y5442204D01*
X2391663Y5364734D01*
X2377947Y5428487D02*
G01*
X2409697Y5428487D01*
X2526029Y5478526D02*
G01*
X2444241Y5332984D01*
X2610611Y5460237D02*
G01*
X2610611Y5364734D01*
X2610611Y5414771D02*
G01*
X2601468Y5423915D01*
X2592577Y5428487D01*
X2578861Y5428487D01*
X2569718Y5423915D01*
X2560574Y5414771D01*
X2556256Y5401310D01*
X2556256Y5392165D01*
X2560574Y5378450D01*
X2569718Y5369305D01*
X2578861Y5364734D01*
X2592577Y5364734D01*
X2601468Y5369305D01*
X2610611Y5378450D01*
X2640584Y5401310D02*
G01*
X2695193Y5401310D01*
X2695193Y5410200D01*
X2690622Y5419344D01*
X2686050Y5423915D01*
X2677159Y5428487D01*
X2663443Y5428487D01*
X2654300Y5423915D01*
X2645156Y5414771D01*
X2640584Y5401310D01*
X2640584Y5392165D01*
X2645156Y5378450D01*
X2654300Y5369305D01*
X2663443Y5364734D01*
X2677159Y5364734D01*
X2686050Y5369305D01*
X2695193Y5378450D01*
X2725165Y5460237D02*
G01*
X2725165Y5364734D01*
X2725165Y5414771D02*
G01*
X2734309Y5423915D01*
X2743454Y5428487D01*
X2757170Y5428487D01*
X2766059Y5423915D01*
X2775204Y5414771D01*
X2779775Y5401310D01*
X2779775Y5392165D01*
X2775204Y5378450D01*
X2766059Y5369305D01*
X2757170Y5364734D01*
X2743454Y5364734D01*
X2734309Y5369305D01*
X2725165Y5378450D01*
X2809747Y5428487D02*
G01*
X2809747Y5383021D01*
X2814320Y5369305D01*
X2823463Y5364734D01*
X2836925Y5364734D01*
X2846070Y5369305D01*
X2859786Y5383021D01*
X2859786Y5428487D02*
G01*
X2859786Y5364734D01*
X2944368Y5428487D02*
G01*
X2944368Y5355844D01*
X2939795Y5342128D01*
X2935224Y5337555D01*
X2926079Y5332984D01*
X2912618Y5332984D01*
X2903474Y5337555D01*
X2944368Y5414771D02*
G01*
X2935224Y5423915D01*
X2926079Y5428487D01*
X2912618Y5428487D01*
X2903474Y5423915D01*
X2894329Y5414771D01*
X2889758Y5401310D01*
X2889758Y5392165D01*
X2894329Y5378450D01*
X2903474Y5369305D01*
X2912618Y5364734D01*
X2926079Y5364734D01*
X2935224Y5369305D01*
X2944368Y5378450D01*
X2308606Y4361685D02*
G01*
X2299715Y4357113D01*
X2290572Y4347969D01*
X2286000Y4334507D01*
X2286000Y4325363D01*
X2290572Y4311647D01*
X2299715Y4302503D01*
X2308606Y4297931D01*
X2322322Y4297931D01*
X2331465Y4302503D01*
X2340609Y4311647D01*
X2345181Y4325363D01*
X2345181Y4334507D01*
X2340609Y4347969D01*
X2331465Y4357113D01*
X2322322Y4361685D01*
X2308606Y4361685D01*
X2375154Y4361685D02*
G01*
X2375154Y4297931D01*
X2375154Y4343397D02*
G01*
X2388615Y4357113D01*
X2397759Y4361685D01*
X2411475Y4361685D01*
X2420620Y4357113D01*
X2425191Y4343397D01*
X2425191Y4297931D01*
D16*
X7772400Y6236462D02*
G01*
X7800086Y6163563D01*
X7827772Y6236462D02*
G01*
X7800086Y6163563D01*
X7892288Y6201663D02*
G01*
X7885429Y6208776D01*
X7878318Y6212078D01*
X7867904Y6212078D01*
X7861045Y6208776D01*
X7854188Y6201663D01*
X7850631Y6191250D01*
X7850631Y6184392D01*
X7854188Y6173978D01*
X7861045Y6167120D01*
X7867904Y6163563D01*
X7878318Y6163563D01*
X7885429Y6167120D01*
X7892288Y6173978D01*
X7956550Y6201663D02*
G01*
X7949691Y6208776D01*
X7942834Y6212078D01*
X7932420Y6212078D01*
X7925561Y6208776D01*
X7918450Y6201663D01*
X7915147Y6191250D01*
X7915147Y6184392D01*
X7918450Y6173978D01*
X7925561Y6167120D01*
X7932420Y6163563D01*
X7942834Y6163563D01*
X7949691Y6167120D01*
X7956550Y6173978D01*
X8078470Y6219189D02*
G01*
X8074913Y6226047D01*
X8068056Y6232905D01*
X8060943Y6236462D01*
X8047227Y6236462D01*
X8040370Y6232905D01*
X8033258Y6226047D01*
X8029956Y6219189D01*
X8026400Y6208776D01*
X8026400Y6191250D01*
X8029956Y6181089D01*
X8033258Y6173978D01*
X8040370Y6167120D01*
X8047227Y6163563D01*
X8060943Y6163563D01*
X8068056Y6167120D01*
X8074913Y6173978D01*
X8078470Y6181089D01*
X8078470Y6191250D01*
X8060943Y6191250D02*
G01*
X8078470Y6191250D01*
X8101329Y6212078D02*
G01*
X8101329Y6163563D01*
X8101329Y6198362D02*
G01*
X8111490Y6208776D01*
X8118602Y6212078D01*
X8129015Y6212078D01*
X8135874Y6208776D01*
X8139429Y6198362D01*
X8139429Y6163563D01*
X8203691Y6236462D02*
G01*
X8203691Y6163563D01*
X8203691Y6201663D02*
G01*
X8196834Y6208776D01*
X8189975Y6212078D01*
X8179561Y6212078D01*
X8172450Y6208776D01*
X8165591Y6201663D01*
X8162290Y6191250D01*
X8162290Y6184392D01*
X8165591Y6173978D01*
X8172450Y6167120D01*
X8179561Y6163563D01*
X8189975Y6163563D01*
X8196834Y6167120D01*
X8203691Y6173978D01*
X8991600Y6236462D02*
G01*
X8991600Y6163563D01*
X8991600Y6236462D02*
G01*
X9022841Y6236462D01*
X9033256Y6232905D01*
X9036558Y6229350D01*
X9040113Y6222492D01*
X9040113Y6215634D01*
X9036558Y6208776D01*
X9033256Y6205220D01*
X9022841Y6201663D01*
X8991600Y6201663D01*
X9015729Y6201663D02*
G01*
X9040113Y6163563D01*
X9062974Y6191250D02*
G01*
X9104629Y6191250D01*
X9104629Y6198362D01*
X9101074Y6205220D01*
X9097518Y6208776D01*
X9090659Y6212078D01*
X9080245Y6212078D01*
X9073388Y6208776D01*
X9066529Y6201663D01*
X9062974Y6191250D01*
X9062974Y6184392D01*
X9066529Y6173978D01*
X9073388Y6167120D01*
X9080245Y6163563D01*
X9090659Y6163563D01*
X9097518Y6167120D01*
X9104629Y6173978D01*
X9165590Y6201663D02*
G01*
X9162034Y6208776D01*
X9151620Y6212078D01*
X9141206Y6212078D01*
X9130791Y6208776D01*
X9127490Y6201663D01*
X9130791Y6194805D01*
X9137650Y6191250D01*
X9155175Y6187947D01*
X9162034Y6184392D01*
X9165590Y6177534D01*
X9165590Y6173978D01*
X9162034Y6167120D01*
X9151620Y6163563D01*
X9141206Y6163563D01*
X9130791Y6167120D01*
X9127490Y6173978D01*
X9188450Y6191250D02*
G01*
X9229852Y6191250D01*
X9229852Y6198362D01*
X9226550Y6205220D01*
X9222993Y6208776D01*
X9216136Y6212078D01*
X9205722Y6212078D01*
X9198609Y6208776D01*
X9191752Y6201663D01*
X9188450Y6191250D01*
X9188450Y6184392D01*
X9191752Y6173978D01*
X9198609Y6167120D01*
X9205722Y6163563D01*
X9216136Y6163563D01*
X9222993Y6167120D01*
X9229852Y6173978D01*
X9263125Y6236462D02*
G01*
X9263125Y6177534D01*
X9266681Y6167120D01*
X9273540Y6163563D01*
X9280397Y6163563D01*
X9252711Y6212078D02*
G01*
X9277095Y6212078D01*
X8360156Y6219189D02*
G01*
X8360156Y6222492D01*
X8363458Y6229350D01*
X8367013Y6232905D01*
X8373872Y6236462D01*
X8387841Y6236462D01*
X8394700Y6232905D01*
X8398256Y6229350D01*
X8401558Y6222492D01*
X8401558Y6215634D01*
X8398256Y6208776D01*
X8391143Y6198362D01*
X8356600Y6163563D01*
X8405113Y6163563D01*
X8623300Y6222492D02*
G01*
X8630158Y6226047D01*
X8640572Y6236462D01*
X8640572Y6163563D01*
X8885427Y6236462D02*
G01*
X8875013Y6232905D01*
X8868156Y6222492D01*
X8864600Y6205220D01*
X8864600Y6194805D01*
X8868156Y6177534D01*
X8875013Y6167120D01*
X8885427Y6163563D01*
X8892286Y6163563D01*
X8902700Y6167120D01*
X8909558Y6177534D01*
X8913113Y6194805D01*
X8913113Y6205220D01*
X8909558Y6222492D01*
X8902700Y6232905D01*
X8892286Y6236462D01*
X8885427Y6236462D01*
D15*
X5346700Y6093460D02*
G01*
X5379465Y5978905D01*
X5412231Y6093460D02*
G01*
X5379465Y5978905D01*
X5412231Y6093460D02*
G01*
X5444997Y5978905D01*
X5477509Y6093460D02*
G01*
X5444997Y5978905D01*
X5629909Y6093460D02*
G01*
X5629909Y5978905D01*
X5629909Y6068821D02*
G01*
X5613400Y6085078D01*
X5597143Y6093460D01*
X5572506Y6093460D01*
X5556250Y6085078D01*
X5539740Y6068821D01*
X5531611Y6044184D01*
X5531611Y6027928D01*
X5539740Y6003289D01*
X5556250Y5987034D01*
X5572506Y5978905D01*
X5597143Y5978905D01*
X5613400Y5987034D01*
X5629909Y6003289D01*
X5708395Y6150610D02*
G01*
X5708395Y6011671D01*
X5716524Y5987034D01*
X5732779Y5978905D01*
X5749290Y5978905D01*
X5683758Y6093460D02*
G01*
X5741161Y6093460D01*
X5803138Y6044184D02*
G01*
X5901436Y6044184D01*
X5901436Y6060694D01*
X5893308Y6076950D01*
X5885179Y6085078D01*
X5868670Y6093460D01*
X5844031Y6093460D01*
X5827775Y6085078D01*
X5811520Y6068821D01*
X5803138Y6044184D01*
X5803138Y6027928D01*
X5811520Y6003289D01*
X5827775Y5987034D01*
X5844031Y5978905D01*
X5868670Y5978905D01*
X5885179Y5987034D01*
X5901436Y6003289D01*
X5955538Y6093460D02*
G01*
X5955538Y5978905D01*
X5955538Y6044184D02*
G01*
X5963665Y6068821D01*
X5979922Y6085078D01*
X5996431Y6093460D01*
X6020815Y6093460D01*
X6074918Y6150610D02*
G01*
X6074918Y5978905D01*
X6074918Y6068821D02*
G01*
X6091174Y6085078D01*
X6107684Y6093460D01*
X6132068Y6093460D01*
X6148577Y6085078D01*
X6164834Y6068821D01*
X6172961Y6044184D01*
X6172961Y6027928D01*
X6164834Y6003289D01*
X6148577Y5987034D01*
X6132068Y5978905D01*
X6107684Y5978905D01*
X6091174Y5987034D01*
X6074918Y6003289D01*
X6227063Y6044184D02*
G01*
X6325361Y6044184D01*
X6325361Y6060694D01*
X6316979Y6076950D01*
X6308852Y6085078D01*
X6292595Y6093460D01*
X6267958Y6093460D01*
X6251702Y6085078D01*
X6235191Y6068821D01*
X6227063Y6044184D01*
X6227063Y6027928D01*
X6235191Y6003289D01*
X6251702Y5987034D01*
X6267958Y5978905D01*
X6292595Y5978905D01*
X6308852Y5987034D01*
X6325361Y6003289D01*
X6477508Y6093460D02*
G01*
X6477508Y5978905D01*
X6477508Y6068821D02*
G01*
X6460997Y6085078D01*
X6444741Y6093460D01*
X6420104Y6093460D01*
X6403847Y6085078D01*
X6387338Y6068821D01*
X6379209Y6044184D01*
X6379209Y6027928D01*
X6387338Y6003289D01*
X6403847Y5987034D01*
X6420104Y5978905D01*
X6444741Y5978905D01*
X6460997Y5987034D01*
X6477508Y6003289D01*
X6531356Y6093460D02*
G01*
X6531356Y5978905D01*
X6531356Y6044184D02*
G01*
X6539484Y6068821D01*
X6555993Y6085078D01*
X6572250Y6093460D01*
X6596888Y6093460D01*
D17*
X3824531Y4890058D02*
G01*
X3819197Y4900472D01*
X3808783Y4910632D01*
X3798369Y4915966D01*
X3777795Y4915966D01*
X3767381Y4910632D01*
X3756967Y4900472D01*
X3751633Y4890058D01*
X3746553Y4874310D01*
X3746553Y4848402D01*
X3751633Y4832908D01*
X3756967Y4822494D01*
X3767381Y4812080D01*
X3777795Y4806746D01*
X3798369Y4806746D01*
X3808783Y4812080D01*
X3819197Y4822494D01*
X3824531Y4832908D01*
X3858821Y4915966D02*
G01*
X3858821Y4806746D01*
X3858821Y4915966D02*
G01*
X3905557Y4915966D01*
X3921051Y4910632D01*
X3926385Y4905552D01*
X3931465Y4895138D01*
X3931465Y4884724D01*
X3926385Y4874310D01*
X3921051Y4869230D01*
X3905557Y4863896D01*
X3858821Y4863896D01*
X3895143Y4863896D02*
G01*
X3931465Y4806746D01*
X3970835Y4890058D02*
G01*
X3970835Y4895138D01*
X3976169Y4905552D01*
X3981249Y4910632D01*
X3991663Y4915966D01*
X4012491Y4915966D01*
X4022905Y4910632D01*
X4027985Y4905552D01*
X4033319Y4895138D01*
X4033319Y4884724D01*
X4027985Y4874310D01*
X4017825Y4858816D01*
X3965755Y4806746D01*
X4038399Y4806746D01*
X4103931Y4915966D02*
G01*
X4088437Y4910632D01*
X4078023Y4895138D01*
X4072689Y4869230D01*
X4072689Y4853482D01*
X4078023Y4827574D01*
X4088437Y4812080D01*
X4103931Y4806746D01*
X4114345Y4806746D01*
X4129839Y4812080D01*
X4140253Y4827574D01*
X4145587Y4853482D01*
X4145587Y4869230D01*
X4140253Y4895138D01*
X4129839Y4910632D01*
X4114345Y4915966D01*
X4103931Y4915966D01*
X4190291Y4915966D02*
G01*
X4247441Y4915966D01*
X4216199Y4874310D01*
X4231693Y4874310D01*
X4242107Y4869230D01*
X4247441Y4863896D01*
X4252521Y4848402D01*
X4252521Y4837988D01*
X4247441Y4822494D01*
X4237027Y4812080D01*
X4221279Y4806746D01*
X4205785Y4806746D01*
X4190291Y4812080D01*
X4184957Y4817160D01*
X4179877Y4827574D01*
X4292145Y4890058D02*
G01*
X4292145Y4895138D01*
X4297225Y4905552D01*
X4302305Y4910632D01*
X4312719Y4915966D01*
X4333547Y4915966D01*
X4343961Y4910632D01*
X4349295Y4905552D01*
X4354375Y4895138D01*
X4354375Y4884724D01*
X4349295Y4874310D01*
X4338881Y4858816D01*
X4286811Y4806746D01*
X4359455Y4806746D01*
X5684215Y4607011D02*
G01*
X5677103Y4603455D01*
X5670245Y4596597D01*
X5666689Y4589485D01*
X5666689Y4575769D01*
X5670245Y4568911D01*
X5677103Y4561799D01*
X5684215Y4558497D01*
X5694375Y4554941D01*
X5711901Y4554941D01*
X5722315Y4558497D01*
X5729173Y4561799D01*
X5736031Y4568911D01*
X5739587Y4575769D01*
X5739587Y4589485D01*
X5736031Y4596597D01*
X5729173Y4603455D01*
X5722315Y4607011D01*
X5711901Y4607011D01*
X5711901Y4589485D02*
G01*
X5711901Y4607011D01*
X5666689Y4629871D02*
G01*
X5739587Y4629871D01*
X5666689Y4629871D02*
G01*
X5739587Y4678131D01*
X5666689Y4678131D02*
G01*
X5739587Y4678131D01*
X5666689Y4700991D02*
G01*
X5739587Y4700991D01*
X5666689Y4700991D02*
G01*
X5666689Y4725375D01*
X5670245Y4735789D01*
X5677103Y4742647D01*
X5684215Y4746203D01*
X5694375Y4749505D01*
X5711901Y4749505D01*
X5722315Y4746203D01*
X5729173Y4742647D01*
X5736031Y4735789D01*
X5739587Y4725375D01*
X5739587Y4700991D01*
X5666689Y4844526D02*
G01*
X5739587Y4872212D01*
X5666689Y4899898D02*
G01*
X5739587Y4872212D01*
X5684215Y4974828D02*
G01*
X5677103Y4971272D01*
X5670245Y4964414D01*
X5666689Y4957556D01*
X5666689Y4943586D01*
X5670245Y4936728D01*
X5677103Y4929616D01*
X5684215Y4926314D01*
X5694375Y4922758D01*
X5711901Y4922758D01*
X5722315Y4926314D01*
X5729173Y4929616D01*
X5736031Y4936728D01*
X5739587Y4943586D01*
X5739587Y4957556D01*
X5736031Y4964414D01*
X5729173Y4971272D01*
X5722315Y4974828D01*
X5684215Y5049504D02*
G01*
X5677103Y5046202D01*
X5670245Y5039090D01*
X5666689Y5032232D01*
X5666689Y5018516D01*
X5670245Y5011404D01*
X5677103Y5004546D01*
X5684215Y5000990D01*
X5694375Y4997688D01*
X5711901Y4997688D01*
X5722315Y5000990D01*
X5729173Y5004546D01*
X5736031Y5011404D01*
X5739587Y5018516D01*
X5739587Y5032232D01*
X5736031Y5039090D01*
X5729173Y5046202D01*
X5722315Y5049504D01*
X5677103Y5190296D02*
G01*
X5670245Y5183438D01*
X5666689Y5173024D01*
X5666689Y5159054D01*
X5670245Y5148640D01*
X5677103Y5141782D01*
X5684215Y5141782D01*
X5691073Y5145338D01*
X5694375Y5148640D01*
X5697931Y5155752D01*
X5704789Y5176326D01*
X5708345Y5183438D01*
X5711901Y5186740D01*
X5718759Y5190296D01*
X5729173Y5190296D01*
X5736031Y5183438D01*
X5739587Y5173024D01*
X5739587Y5159054D01*
X5736031Y5148640D01*
X5729173Y5141782D01*
X5684215Y5264972D02*
G01*
X5677103Y5261670D01*
X5670245Y5254812D01*
X5666689Y5247700D01*
X5666689Y5233984D01*
X5670245Y5226872D01*
X5677103Y5220014D01*
X5684215Y5216712D01*
X5694375Y5213156D01*
X5711901Y5213156D01*
X5722315Y5216712D01*
X5729173Y5220014D01*
X5736031Y5226872D01*
X5739587Y5233984D01*
X5739587Y5247700D01*
X5736031Y5254812D01*
X5729173Y5261670D01*
X5722315Y5264972D01*
X5666689Y5287832D02*
G01*
X5739587Y5287832D01*
X5739587Y5287832D02*
G01*
X5739587Y5329488D01*
X5677103Y5469900D02*
G01*
X5670245Y5463042D01*
X5666689Y5452628D01*
X5666689Y5438658D01*
X5670245Y5428244D01*
X5677103Y5421386D01*
X5684215Y5421386D01*
X5691073Y5424942D01*
X5694375Y5428244D01*
X5697931Y5435356D01*
X5704789Y5455930D01*
X5708345Y5463042D01*
X5711901Y5466344D01*
X5718759Y5469900D01*
X5729173Y5469900D01*
X5736031Y5463042D01*
X5739587Y5452628D01*
X5739587Y5438658D01*
X5736031Y5428244D01*
X5729173Y5421386D01*
X5666689Y5492760D02*
G01*
X5739587Y5492760D01*
X5666689Y5492760D02*
G01*
X5666689Y5516890D01*
X5670245Y5527304D01*
X5677103Y5534416D01*
X5684215Y5537718D01*
X5694375Y5541274D01*
X5711901Y5541274D01*
X5722315Y5537718D01*
X5729173Y5534416D01*
X5736031Y5527304D01*
X5739587Y5516890D01*
X5739587Y5492760D01*
X5666689Y5591820D02*
G01*
X5739587Y5564134D01*
X5666689Y5591820D02*
G01*
X5739587Y5619506D01*
X5715203Y5574548D02*
G01*
X5715203Y5609092D01*
X7039356Y3887139D02*
G01*
X6997700Y3778173D01*
X7039356Y3887139D02*
G01*
X7080758Y3778173D01*
X7013193Y3814495D02*
G01*
X7065263Y3814495D01*
X7151370Y3887139D02*
G01*
X7151370Y3778173D01*
X7115047Y3887139D02*
G01*
X7187945Y3887139D01*
X7258558Y3887139D02*
G01*
X7258558Y3778173D01*
X7222236Y3887139D02*
G01*
X7294879Y3887139D01*
X7329170Y3887139D02*
G01*
X7329170Y3778173D01*
X7363459Y3887139D02*
G01*
X7363459Y3778173D01*
X7363459Y3887139D02*
G01*
X7436104Y3778173D01*
X7436104Y3887139D02*
G01*
X7436104Y3778173D01*
X7470393Y3887139D02*
G01*
X7512050Y3835323D01*
X7512050Y3778173D01*
X7553706Y3887139D02*
G01*
X7512050Y3835323D01*
X7613904Y3887139D02*
G01*
X7598409Y3882059D01*
X7593075Y3871645D01*
X7593075Y3861231D01*
X7598409Y3850817D01*
X7608570Y3845737D01*
X7629397Y3840403D01*
X7645145Y3835323D01*
X7655559Y3824909D01*
X7660640Y3814495D01*
X7660640Y3799001D01*
X7655559Y3788587D01*
X7650225Y3783253D01*
X7634731Y3778173D01*
X7613904Y3778173D01*
X7598409Y3783253D01*
X7593075Y3788587D01*
X7587995Y3799001D01*
X7587995Y3814495D01*
X7593075Y3824909D01*
X7603490Y3835323D01*
X7618984Y3840403D01*
X7639811Y3845737D01*
X7650225Y3850817D01*
X7655559Y3861231D01*
X7655559Y3871645D01*
X7650225Y3882059D01*
X7634731Y3887139D01*
X7613904Y3887139D01*
X7757159Y3887139D02*
G01*
X7705343Y3887139D01*
X7700009Y3840403D01*
X7705343Y3845737D01*
X7720838Y3850817D01*
X7736586Y3850817D01*
X7752079Y3845737D01*
X7762493Y3835323D01*
X7767574Y3819575D01*
X7767574Y3809415D01*
X7762493Y3793667D01*
X7752079Y3783253D01*
X7736586Y3778173D01*
X7720838Y3778173D01*
X7705343Y3783253D01*
X7700009Y3788587D01*
X7694929Y3799001D01*
X8521700Y3442715D02*
G01*
X8521700Y3333750D01*
X8594343Y3442715D02*
G01*
X8521700Y3370071D01*
X8547608Y3395979D02*
G01*
X8594343Y3333750D01*
X8628634Y3442715D02*
G01*
X8628634Y3333750D01*
X8628634Y3442715D02*
G01*
X8696197Y3442715D01*
X8628634Y3390900D02*
G01*
X8670290Y3390900D01*
X8628634Y3333750D02*
G01*
X8696197Y3333750D01*
X8730488Y3442715D02*
G01*
X8772143Y3390900D01*
X8772143Y3333750D01*
X8813800Y3442715D02*
G01*
X8772143Y3390900D01*
X8853170Y3416807D02*
G01*
X8853170Y3421887D01*
X8858250Y3432302D01*
X8863584Y3437636D01*
X8873997Y3442715D01*
X8894825Y3442715D01*
X8905240Y3437636D01*
X8910320Y3432302D01*
X8915400Y3421887D01*
X8915400Y3411473D01*
X8910320Y3401060D01*
X8899906Y3385565D01*
X8848090Y3333750D01*
X8920734Y3333750D01*
X5638800Y3442715D02*
G01*
X5638800Y3333750D01*
X5711443Y3442715D02*
G01*
X5638800Y3370071D01*
X5664708Y3395979D02*
G01*
X5711443Y3333750D01*
X5745734Y3442715D02*
G01*
X5745734Y3333750D01*
X5745734Y3442715D02*
G01*
X5813297Y3442715D01*
X5745734Y3390900D02*
G01*
X5787390Y3390900D01*
X5745734Y3333750D02*
G01*
X5813297Y3333750D01*
X5847588Y3442715D02*
G01*
X5889243Y3390900D01*
X5889243Y3333750D01*
X5930900Y3442715D02*
G01*
X5889243Y3390900D01*
X5965190Y3421887D02*
G01*
X5975350Y3427221D01*
X5991097Y3442715D01*
X5991097Y3333750D01*
D10*
X1871700Y4878339D02*
G01*
X2171700Y4878339D01*
X1871700Y5028338D02*
G01*
X1871700Y4878339D01*
X2171700Y5028338D02*
G01*
X1871700Y5028338D01*
X2531699Y5299100D02*
G01*
X2531699Y4429099D01*
X2171700Y4429099D02*
G01*
X2531699Y4429099D01*
X2171700Y5299100D02*
G01*
X2531699Y5299100D01*
X2171700Y5299100D02*
G01*
X2171700Y4429099D01*
X4086707Y5236316D02*
G01*
X4086707Y5490314D01*
X4461708Y3556312D02*
G01*
X4461708Y3846311D01*
X3691707Y3556312D02*
G01*
X3691704Y3836311D01*
X3691707Y3556312D02*
G01*
X4461708Y3556312D01*
X4076707Y3929311D02*
G01*
X4076707Y4183311D01*
X4213707Y4056311D02*
G01*
X3959707Y4056311D01*
X5346700Y4479503D02*
G01*
X9146692Y4479503D01*
X5346700Y4479503D02*
G01*
X5346700Y5679500D01*
X5346700Y5679500D02*
G01*
X9146692Y5679500D01*
X9146692Y5679500D02*
G01*
X9146692Y4479503D01*
X9136684Y4479503D01*
X6056706Y4479503D02*
G01*
X6056706Y5679500D01*
X8846693Y4479503D02*
G01*
X8846693Y5679500D01*
X6870600Y3733876D02*
G01*
X6870600Y3524054D01*
X6870600Y3937076D02*
G01*
X6870600Y4146745D01*
X7810599Y4146745D02*
G01*
X7810599Y3524054D01*
X7029477Y4127576D02*
G01*
X7143719Y4127576D01*
X7283480Y4127576D02*
G01*
X7397719Y4127576D01*
X7537480Y4127576D02*
G01*
X7651722Y4127576D01*
X7029284Y3543373D02*
G01*
X7143915Y3543376D01*
X7283284Y3543376D02*
G01*
X7397915Y3543376D01*
X7537284Y3543376D02*
G01*
X7651915Y3543373D01*
X9029700Y3942499D02*
G01*
X9029700Y3718410D01*
X8454486Y4135254D02*
G01*
X8944513Y4135254D01*
X8369300Y3942499D02*
G01*
X8369300Y3718410D01*
X8454486Y3525654D02*
G01*
X8944513Y3525654D01*
X6159500Y3942499D02*
G01*
X6159500Y3718410D01*
X5584286Y4135254D02*
G01*
X6074313Y4135254D01*
X5499100Y3942499D02*
G01*
X5499100Y3718410D01*
X5584286Y3525654D02*
G01*
X6074313Y3525654D01*
G75*
G01*
X4496707Y3996312D02*
G03*
X4487875Y3992171I-420531J885557D01*
G75*
G01*
X4461708Y3846312D02*
G03*
X3692710Y3845565I-385505J1035572D01*
G75*
G01*
X6870601Y3937076D02*
G02*
X6870601Y3733876I0J-101600D01*
G75*
G01
X8559800Y4008247D02*
G03X8559800Y4008247I-50800J0D01*
G75*
G01
X8547100Y3652647D02*
G03X8547100Y3652647I-50800J0D01*
G75*
G01
X8940800Y4008247D02*
G03X8940800Y4008247I-50800J0D01*
G75*
G01
X8928100Y3652647D02*
G03X8928100Y3652647I-50800J0D01*
G75*
G01
X8813800Y3830447D02*
G03X8813800Y3830447I-114300J0D01*
G75*
G01
X8849614Y3830447D02*
G03X8849614Y3830447I-150114J0D01*
G75*
G01
X5689600Y4008247D02*
G03X5689600Y4008247I-50800J0D01*
G75*
G01
X5676900Y3652647D02*
G03X5676900Y3652647I-50800J0D01*
G75*
G01
X6070600Y4008247D02*
G03X6070600Y4008247I-50800J0D01*
G75*
G01
X6057900Y3652647D02*
G03X6057900Y3652647I-50800J0D01*
G75*
G01
X5943600Y3830447D02*
G03X5943600Y3830447I-114300J0D01*
G75*
G01
X5979414Y3830447D02*
G03X5979414Y3830447I-150114J0D01*
M02*
